# xmcd
#
# Track frame offsets: 
#        150
#        21287
#        35745
#        74705
#        95600
#        126265
#        146475
#        178367
#        205020
#        222810
#        245807
#
# Disc length: 3519 seconds
#
# Revision: 2
# Processed by: cddbd v1.5.1PL0 Copyright (c) Steve Scherf et al.
# Submitted via: ExactAudioCopy v0.90b4
#
DISCID=b20dbd0b
DTITLE=Julian Sas - Twilight Skies of Life
DYEAR=2005
DGENRE=Blues
TTITLE0=Helping Hand
TTITLE1=Freedom Bound
TTITLE2=I'm Still Crying
TTITLE3=The One to Blame
TTITLE4=That's Enough for Me
TTITLE5=Lost Again
TTITLE6=Lookin' for a Friend
TTITLE7=It Ain't Easy
TTITLE8=Devil Got My Number
TTITLE9=Think About It
TTITLE10=That's Enough for Me (Radio Version)
EXTD=
EXTT0=
EXTT1=
EXTT2=
EXTT3=
EXTT4=
EXTT5=
EXTT6=
EXTT7=
EXTT8=
EXTT9=
EXTT10=
PLAYORDER=
